# xmcd
#
# Track frame offsets:
#	150
#	17304
#	37353
#	49416
#	64082
#	77049
#	93465
#	111616
#	128045
#	142025
#	153184
#	168702
#	182382
#	194580
#	209744
#	224196
#	245816
#	264163
#	278507
#	290899
#	304747
#	315422
#	328850
#
# Disc length: 4684 seconds
#
# Revision: 1
# Processed by: cddbd v1.5.1PL0 Copyright (c) Steve Scherf et al.
# Submitted via: audiograbber 1.83.01
#
DISCID=6e124a17
DTITLE=Jimmy Lewis - Give The Poor Man A Break
DYEAR=2002
DGENRE=
TTITLE0=She's Gone
TTITLE1=Ain't No Need
TTITLE2=Hot Southern Love
TTITLE3=When I Build My World
TTITLE4=Three Into Two Won't Go
TTITLE5=Leave Him
TTITLE6=I Can't Leave You Alone
TTITLE7=Things Got To Get Better
TTITLE8=Careful Man
TTITLE9=The Good Part About It
TTITLE10=I'm Gonna Get Ya Girl
TTITLE11=Who's The Weaker Sex
TTITLE12=Stand By
TTITLE13=Look What You've Done
TTITLE14=Stop Half Loving These Women
TTITLE15=Mom's Love, God's Love
TTITLE16=I Don't Know How But I Am
TTITLE17=Where Was He?
TTITLE18=Pool Hall Willie
TTITLE19=Don't Let Your Girlfriend Turn gainst Yout Man
TTITLE20=Give The Poor Man A Break
TTITLE21=Tom Boy
TTITLE22=When You Get A Little, Give A Little
EXTD=
EXTT0=
EXTT1=
EXTT2=
EXTT3=
EXTT4=
EXTT5=
EXTT6=
EXTT7=
EXTT8=
EXTT9=
EXTT10=
EXTT11=
EXTT12=
EXTT13=
EXTT14=
EXTT15=
EXTT16=
EXTT17=
EXTT18=
EXTT19=
EXTT20=
EXTT21=
EXTT22=
PLAYORDER=
